<svg width="32" height="32" viewBox="0 0 32 32" fill="none" xmlns="http://www.w3.org/2000/svg">
<path d="M14 4h4v4h3.5c1.4 0 2.5 1.1 2.5 2.5v16.5c0 1.1-.9 2-2 2H10c-1.1 0-2-.9-2-2V10.5C8 9.1 9.1 8 10.5 8H14z" fill="#D9F0FF"/>
<clipPath id="b"><path d="M14 4h4v4h3.5c1.4 0 2.5 1.1 2.5 2.5v16.5c0 1.1-.9 2-2 2H10c-1.1 0-2-.9-2-2V10.5C8 9.1 9.1 8 10.5 8H14z"/></clipPath><rect x="0" y="10.5" width="32" height="32" fill="#B5651D" clip-path="url(#b)"/>
<rect x="13.75" y="2.5" width="4.5" height="2.5" rx=".6" fill="#B5302A"/>
<rect x="8.5" y="13.5" width="15" height="9" rx="1" fill="#F6EEDC"/>
<g transform="translate(0 2)"><text x="16" y="17.6" text-anchor="middle" font-family="Arial, Helvetica, sans-serif" font-weight="700" font-size="4.6" fill="#B5302A">B</text></g>
<path d="M9.5 23.7v3" stroke="#FFFFFF" stroke-opacity=".45" stroke-width="1.2" stroke-linecap="round"/>
</svg>
