<svg width="32" height="32" viewBox="0 0 32 32" fill="none" xmlns="http://www.w3.org/2000/svg">
<g transform="translate(-3.2 -6) scale(1.2)">
<ellipse cx="16" cy="25.5" rx="12.5" ry="3.5" fill="#D3D3D3"/>
<ellipse cx="16" cy="24.8" rx="11" ry="2.6" fill="#F4F4F4"/>
<path d="M5.5 24.5c1.5-6 5.5-12 10.5-12s9 6 10.5 12c-3 1.4-6.6 2-10.5 2s-7.5-.6-10.5-2z" fill="#7D4E2C"/>
<path d="M16 12.5c-2.5 0-4.8 1.5-6.6 3.8 1.5-.6 3-.8 4.4-.4C15 16.3 16 14.5 16 12.5z" fill="#5A3418" fill-opacity=".9"/>
<path d="M20 17c2 2 3.6 4.6 4.6 7.6" stroke="#5A3418" stroke-width="1.2" stroke-linecap="round"/>
<circle cx="13.63" cy="16.95" r=".5" fill="#A0663C"/><circle cx="14.37" cy="20.92" r=".5" fill="#A0663C"/><circle cx="22.47" cy="18.87" r=".5" fill="#A0663C"/><circle cx="15.76" cy="23.55" r=".5" fill="#A0663C"/><circle cx="14.07" cy="20.71" r=".5" fill="#A0663C"/><circle cx="9.24" cy="23.09" r=".5" fill="#A0663C"/><circle cx="21.09" cy="16.46" r=".5" fill="#A0663C"/><circle cx="13.47" cy="22.55" r=".5" fill="#A0663C"/><circle cx="20.21" cy="18.13" r=".5" fill="#A0663C"/><circle cx="19.14" cy="15.93" r=".5" fill="#A0663C"/><circle cx="16.09" cy="19.71" r=".5" fill="#A0663C"/><circle cx="16.89" cy="15.22" r=".5" fill="#A0663C"/><circle cx="13.39" cy="15.21" r=".5" fill="#A0663C"/><circle cx="11.41" cy="23.43" r=".5" fill="#A0663C"/><circle cx="16.78" cy="16.63" r=".5" fill="#A0663C"/><circle cx="21.35" cy="16.56" r=".5" fill="#A0663C"/>
<ellipse cx="26.48" cy="23" rx="2.25" ry="1.08" fill="#8B3E1E" transform="rotate(0 26.48 23)"/><circle cx="26.79" cy="23" r="0.45" fill="#D9A066"/><ellipse cx="25.75" cy="24.75" rx="2.25" ry="1.08" fill="#8B3E1E" transform="rotate(45 25.75 24.75)"/><circle cx="25.97" cy="24.97" r="0.45" fill="#D9A066"/><ellipse cx="24" cy="25.48" rx="2.25" ry="1.08" fill="#8B3E1E" transform="rotate(90 24 25.48)"/><circle cx="24" cy="25.79" r="0.45" fill="#D9A066"/><ellipse cx="22.25" cy="24.75" rx="2.25" ry="1.08" fill="#8B3E1E" transform="rotate(135 22.25 24.75)"/><circle cx="22.03" cy="24.97" r="0.45" fill="#D9A066"/><ellipse cx="21.52" cy="23" rx="2.25" ry="1.08" fill="#8B3E1E" transform="rotate(180 21.52 23)"/><circle cx="21.21" cy="23" r="0.45" fill="#D9A066"/><ellipse cx="22.25" cy="21.25" rx="2.25" ry="1.08" fill="#8B3E1E" transform="rotate(225 22.25 21.25)"/><circle cx="22.03" cy="21.03" r="0.45" fill="#D9A066"/><ellipse cx="24" cy="20.52" rx="2.25" ry="1.08" fill="#8B3E1E" transform="rotate(270 24 20.52)"/><circle cx="24" cy="20.21" r="0.45" fill="#D9A066"/><ellipse cx="25.75" cy="21.25" rx="2.25" ry="1.08" fill="#8B3E1E" transform="rotate(315 25.75 21.25)"/><circle cx="25.97" cy="21.03" r="0.45" fill="#D9A066"/><circle cx="24" cy="23" r="0.72" fill="#5A2410"/><g transform="translate(8 23) rotate(-50) scale(0.75)"><path d="M-.9 -3h1.8l-.4 11.5c-.1.7-.9.7-1 0z" fill="#7A3E1D"/><path d="M-3 -3.5c1-1.4 5-1.4 6 0l-1 2.4c-1.2.8-2.8.8-4 0z" fill="#5A2E15"/><circle cx="0" cy="-5.2" r="2.2" fill="#8B4A24"/><circle cx="-.6" cy="-5.8" r=".7" fill="#B06A3E"/></g><g transform="translate(-4 4)"><g transform="rotate(60 10 17)"><ellipse cx="10" cy="17" rx="2.6" ry="4.6" fill="#8DB33A" stroke="#5E7E1F" stroke-width=".6"/><path d="M10 13v8M8.7 13.7c-.6 2-.6 4.6 0 6.6M11.3 13.7c.6 2 .6 4.6 0 6.6" stroke="#5E7E1F" stroke-width=".45"/><path d="M10 12.4l0 -1.4" stroke="#5E7E1F" stroke-width=".9" stroke-linecap="round"/></g></g>
</g>
</svg>
