<svg width="32" height="32" viewBox="0 0 32 32" fill="none" xmlns="http://www.w3.org/2000/svg">
<g transform="translate(-4 -7.6) scale(1.25)">
<ellipse cx="16" cy="26.5" rx="12.6" ry="3.6" fill="#D3D3D3"/>
<ellipse cx="16" cy="25.8" rx="11" ry="2.7" fill="#F4F4F4"/>
<path d="M5 25.5c1.5-6.5 5.8-13 11-13s9.5 6.5 11 13c-3.2 1.5-7 2-11 2s-7.8-.5-11-2z" fill="#4A3A30"/>
<path d="M16 12.5c-2.7 0-5.1 1.6-7 4.1 1.6-.6 3.2-.8 4.7-.4 1.2-1.4 2.3-2.4 2.3-3.7z" fill="#2A1C13" fill-opacity=".6"/>
<g transform="translate(22.23 22.36) scale(0.62)"><circle r="1.35" fill="#3A2A22" stroke="#1E1410" stroke-width=".45"/><circle cx="-.45" cy="-.45" r=".38" fill="#FFFFFF" fill-opacity=".45"/></g><g transform="translate(14.31 22.25) scale(0.62)"><circle r="1.35" fill="#3A2A22" stroke="#1E1410" stroke-width=".45"/><circle cx="-.45" cy="-.45" r=".38" fill="#FFFFFF" fill-opacity=".45"/></g><g transform="translate(13.91 19) scale(0.62)"><circle r="1.35" fill="#3A2A22" stroke="#1E1410" stroke-width=".45"/><circle cx="-.45" cy="-.45" r=".38" fill="#FFFFFF" fill-opacity=".45"/></g><g transform="translate(11.69 15.96) scale(0.62)"><circle r="1.35" fill="#3A2A22" stroke="#1E1410" stroke-width=".45"/><circle cx="-.45" cy="-.45" r=".38" fill="#FFFFFF" fill-opacity=".45"/></g><g transform="translate(14.33 16.46) scale(0.62)"><circle r="1.35" fill="#3A2A22" stroke="#1E1410" stroke-width=".45"/><circle cx="-.45" cy="-.45" r=".38" fill="#FFFFFF" fill-opacity=".45"/></g><g transform="translate(12.49 15.83) scale(0.62)"><circle r="1.35" fill="#3A2A22" stroke="#1E1410" stroke-width=".45"/><circle cx="-.45" cy="-.45" r=".38" fill="#FFFFFF" fill-opacity=".45"/></g><g transform="translate(12.83 17.4) scale(0.62)"><circle r="1.35" fill="#3A2A22" stroke="#1E1410" stroke-width=".45"/><circle cx="-.45" cy="-.45" r=".38" fill="#FFFFFF" fill-opacity=".45"/></g><g transform="translate(14.73 16.49) scale(0.62)"><circle r="1.35" fill="#3A2A22" stroke="#1E1410" stroke-width=".45"/><circle cx="-.45" cy="-.45" r=".38" fill="#FFFFFF" fill-opacity=".45"/></g><g transform="translate(13.63 20.67) scale(0.62)"><circle r="1.35" fill="#3A2A22" stroke="#1E1410" stroke-width=".45"/><circle cx="-.45" cy="-.45" r=".38" fill="#FFFFFF" fill-opacity=".45"/></g><g transform="translate(8.64 22.98) scale(0.62)"><circle r="1.35" fill="#3A2A22" stroke="#1E1410" stroke-width=".45"/><circle cx="-.45" cy="-.45" r=".38" fill="#FFFFFF" fill-opacity=".45"/></g><g transform="translate(18.1 19.78) scale(0.62)"><circle r="1.35" fill="#3A2A22" stroke="#1E1410" stroke-width=".45"/><circle cx="-.45" cy="-.45" r=".38" fill="#FFFFFF" fill-opacity=".45"/></g><g transform="translate(12.4 18.11) scale(0.62)"><circle r="1.35" fill="#3A2A22" stroke="#1E1410" stroke-width=".45"/><circle cx="-.45" cy="-.45" r=".38" fill="#FFFFFF" fill-opacity=".45"/></g><g transform="translate(14.22 21.31) scale(0.62)"><circle r="1.35" fill="#3A2A22" stroke="#1E1410" stroke-width=".45"/><circle cx="-.45" cy="-.45" r=".38" fill="#FFFFFF" fill-opacity=".45"/></g><g transform="translate(14.23 16.71) scale(0.62)"><circle r="1.35" fill="#3A2A22" stroke="#1E1410" stroke-width=".45"/><circle cx="-.45" cy="-.45" r=".38" fill="#FFFFFF" fill-opacity=".45"/></g><g transform="translate(19.09 15.65) scale(0.62)"><circle r="1.35" fill="#3A2A22" stroke="#1E1410" stroke-width=".45"/><circle cx="-.45" cy="-.45" r=".38" fill="#FFFFFF" fill-opacity=".45"/></g><g transform="translate(19.47 21.47) scale(0.62)"><circle r="1.35" fill="#3A2A22" stroke="#1E1410" stroke-width=".45"/><circle cx="-.45" cy="-.45" r=".38" fill="#FFFFFF" fill-opacity=".45"/></g><g transform="translate(22.03 21.48) scale(0.62)"><circle r="1.35" fill="#3A2A22" stroke="#1E1410" stroke-width=".45"/><circle cx="-.45" cy="-.45" r=".38" fill="#FFFFFF" fill-opacity=".45"/></g><g transform="translate(17.44 19.04) scale(0.62)"><circle r="1.35" fill="#3A2A22" stroke="#1E1410" stroke-width=".45"/><circle cx="-.45" cy="-.45" r=".38" fill="#FFFFFF" fill-opacity=".45"/></g><g transform="translate(12.38 17.46) scale(0.62)"><circle r="1.35" fill="#3A2A22" stroke="#1E1410" stroke-width=".45"/><circle cx="-.45" cy="-.45" r=".38" fill="#FFFFFF" fill-opacity=".45"/></g><g transform="translate(13.5 20.09) scale(0.62)"><circle r="1.35" fill="#3A2A22" stroke="#1E1410" stroke-width=".45"/><circle cx="-.45" cy="-.45" r=".38" fill="#FFFFFF" fill-opacity=".45"/></g><g transform="translate(11.47 22.25) scale(0.62)"><circle r="1.35" fill="#3A2A22" stroke="#1E1410" stroke-width=".45"/><circle cx="-.45" cy="-.45" r=".38" fill="#FFFFFF" fill-opacity=".45"/></g><g transform="translate(12.96 19.29) scale(0.62)"><circle r="1.35" fill="#3A2A22" stroke="#1E1410" stroke-width=".45"/><circle cx="-.45" cy="-.45" r=".38" fill="#FFFFFF" fill-opacity=".45"/></g><g transform="translate(8.63 22.52) scale(0.62)"><circle r="1.35" fill="#3A2A22" stroke="#1E1410" stroke-width=".45"/><circle cx="-.45" cy="-.45" r=".38" fill="#FFFFFF" fill-opacity=".45"/></g><g transform="translate(21.16 19.3) scale(0.62)"><circle r="1.35" fill="#3A2A22" stroke="#1E1410" stroke-width=".45"/><circle cx="-.45" cy="-.45" r=".38" fill="#FFFFFF" fill-opacity=".45"/></g>
<g transform="translate(8.5 26.5) scale(1.15)"><circle r="1.35" fill="#3A2A22" stroke="#1E1410" stroke-width=".45"/><circle cx="-.45" cy="-.45" r=".38" fill="#FFFFFF" fill-opacity=".45"/></g><g transform="translate(13.5 27.5) scale(1.15)"><circle r="1.35" fill="#3A2A22" stroke="#1E1410" stroke-width=".45"/><circle cx="-.45" cy="-.45" r=".38" fill="#FFFFFF" fill-opacity=".45"/></g><g transform="translate(18.5 27.5) scale(1.15)"><circle r="1.35" fill="#3A2A22" stroke="#1E1410" stroke-width=".45"/><circle cx="-.45" cy="-.45" r=".38" fill="#FFFFFF" fill-opacity=".45"/></g><g transform="translate(23.5 26.5) scale(1.15)"><circle r="1.35" fill="#3A2A22" stroke="#1E1410" stroke-width=".45"/><circle cx="-.45" cy="-.45" r=".38" fill="#FFFFFF" fill-opacity=".45"/></g><g transform="translate(11 23.8) scale(1.15)"><circle r="1.35" fill="#3A2A22" stroke="#1E1410" stroke-width=".45"/><circle cx="-.45" cy="-.45" r=".38" fill="#FFFFFF" fill-opacity=".45"/></g><g transform="translate(21 23.8) scale(1.15)"><circle r="1.35" fill="#3A2A22" stroke="#1E1410" stroke-width=".45"/><circle cx="-.45" cy="-.45" r=".38" fill="#FFFFFF" fill-opacity=".45"/></g>
</g>
</svg>
