<svg width="32" height="32" viewBox="0 0 32 32" fill="none" xmlns="http://www.w3.org/2000/svg">
<ellipse cx="16" cy="24" rx="12" ry="4" fill="#F4F4F4"/><path d="M6.97 12.22l-4.99 0.35" stroke="#E0451E" stroke-width="1.1" stroke-linecap="round"/><circle cx="1.98" cy="12.56" r=".8" fill="#FF822D"/><path d="M11.09 19.05l-4.93 0.81" stroke="#E0451E" stroke-width="1.1" stroke-linecap="round"/><circle cx="6.15" cy="19.86" r=".8" fill="#FF822D"/><path d="M15.71 23.18l2.5 -4.33" stroke="#E0451E" stroke-width="1.1" stroke-linecap="round"/><circle cx="18.21" cy="18.85" r=".8" fill="#FF822D"/><path d="M9.18 15.28l3.07 3.95" stroke="#E0451E" stroke-width="1.1" stroke-linecap="round"/><circle cx="12.25" cy="19.22" r=".8" fill="#FF822D"/><path d="M19.82 18l4.98 -0.46" stroke="#E0451E" stroke-width="1.1" stroke-linecap="round"/><circle cx="24.8" cy="17.54" r=".8" fill="#FF822D"/><path d="M15.97 22.02l-4.94 -0.76" stroke="#E0451E" stroke-width="1.1" stroke-linecap="round"/><circle cx="11.03" cy="21.26" r=".8" fill="#FF822D"/><path d="M25.96 18l-3.31 -3.75" stroke="#E0451E" stroke-width="1.1" stroke-linecap="round"/><circle cx="22.66" cy="14.25" r=".8" fill="#FF822D"/><path d="M18.13 12.62l-1.64 4.72" stroke="#E0451E" stroke-width="1.1" stroke-linecap="round"/><circle cx="16.5" cy="17.34" r=".8" fill="#FF822D"/><path d="M20.81 12.52l5 -0.2" stroke="#E0451E" stroke-width="1.1" stroke-linecap="round"/><circle cx="25.81" cy="12.32" r=".8" fill="#FF822D"/><path d="M22.34 8.4l-1.05 4.89" stroke="#E0451E" stroke-width="1.1" stroke-linecap="round"/><circle cx="21.29" cy="13.28" r=".8" fill="#FF822D"/><path d="M11.03 22.9l0.03 -5" stroke="#E0451E" stroke-width="1.1" stroke-linecap="round"/><circle cx="11.07" cy="17.9" r=".8" fill="#FF822D"/><path d="M15.24 14.7l-0.59 4.96" stroke="#E0451E" stroke-width="1.1" stroke-linecap="round"/><circle cx="14.65" cy="19.66" r=".8" fill="#FF822D"/><path d="M23.29 22.46l-1.23 -4.85" stroke="#E0451E" stroke-width="1.1" stroke-linecap="round"/><circle cx="22.06" cy="17.61" r=".8" fill="#FF822D"/><path d="M23.52 20.85l-2.86 -4.1" stroke="#E0451E" stroke-width="1.1" stroke-linecap="round"/><circle cx="20.66" cy="16.74" r=".8" fill="#FF822D"/><path d="M24.25 16.53l-2.28 -4.45" stroke="#E0451E" stroke-width="1.1" stroke-linecap="round"/><circle cx="21.97" cy="12.08" r=".8" fill="#FF822D"/><path d="M13.83 16.18l4.69 -1.73" stroke="#E0451E" stroke-width="1.1" stroke-linecap="round"/><circle cx="18.52" cy="14.45" r=".8" fill="#FF822D"/><path d="M20.58 10.46l-0.25 -4.99" stroke="#E0451E" stroke-width="1.1" stroke-linecap="round"/><circle cx="20.33" cy="5.47" r=".8" fill="#FF822D"/><path d="M12.84 22.04l0.35 4.99" stroke="#E0451E" stroke-width="1.1" stroke-linecap="round"/><circle cx="13.19" cy="27.02" r=".8" fill="#FF822D"/>
</svg>
