<svg width="32" height="32" viewBox="0 0 32 32" fill="none" xmlns="http://www.w3.org/2000/svg">
<path d="M8 17c1.6-1.4 2.4-1.4 3.6 0M18.6 17c1.6-1.4 2.4-1.4 3.6 0" stroke="#7E1E18" stroke-width="1.4" stroke-linecap="round"/><ellipse cx="5.5" cy="17" rx="5" ry="6.4" fill="#B5302A"/><ellipse cx="5.5" cy="17" rx="5" ry="6.4" fill="none" stroke="#7E1E18" stroke-width=".7"/><path d="M3 14c.8-1.4 2-2 3.4-2" stroke="#E8746C" stroke-width="1.1" stroke-linecap="round"/><circle cx="6.6" cy="18.6" r=".6" fill="#F4C9A0"/><circle cx="4" cy="20" r=".5" fill="#F4C9A0"/><ellipse cx="15.8" cy="17" rx="5" ry="6.4" fill="#B5302A"/><ellipse cx="15.8" cy="17" rx="5" ry="6.4" fill="none" stroke="#7E1E18" stroke-width=".7"/><path d="M13.3 14c.8-1.4 2-2 3.4-2" stroke="#E8746C" stroke-width="1.1" stroke-linecap="round"/><circle cx="16.900000000000002" cy="18.6" r=".6" fill="#F4C9A0"/><circle cx="14.3" cy="20" r=".5" fill="#F4C9A0"/><ellipse cx="26.1" cy="17" rx="5" ry="6.4" fill="#B5302A"/><ellipse cx="26.1" cy="17" rx="5" ry="6.4" fill="none" stroke="#7E1E18" stroke-width=".7"/><path d="M23.6 14c.8-1.4 2-2 3.4-2" stroke="#E8746C" stroke-width="1.1" stroke-linecap="round"/><circle cx="27.200000000000003" cy="18.6" r=".6" fill="#F4C9A0"/><circle cx="24.6" cy="20" r=".5" fill="#F4C9A0"/>
</svg>
