<svg width="32" height="32" viewBox="0 0 32 32" fill="none" xmlns="http://www.w3.org/2000/svg">
<ellipse cx="22.6" cy="16" rx="6" ry="2.88" fill="#8B3E1E" transform="rotate(0 22.6 16)"/><circle cx="23.44" cy="16" r="1.2" fill="#D9A066"/><ellipse cx="20.67" cy="20.67" rx="6" ry="2.88" fill="#8B3E1E" transform="rotate(45 20.67 20.67)"/><circle cx="21.26" cy="21.26" r="1.2" fill="#D9A066"/><ellipse cx="16" cy="22.6" rx="6" ry="2.88" fill="#8B3E1E" transform="rotate(90 16 22.6)"/><circle cx="16" cy="23.44" r="1.2" fill="#D9A066"/><ellipse cx="11.33" cy="20.67" rx="6" ry="2.88" fill="#8B3E1E" transform="rotate(135 11.33 20.67)"/><circle cx="10.74" cy="21.26" r="1.2" fill="#D9A066"/><ellipse cx="9.4" cy="16" rx="6" ry="2.88" fill="#8B3E1E" transform="rotate(180 9.4 16)"/><circle cx="8.56" cy="16" r="1.2" fill="#D9A066"/><ellipse cx="11.33" cy="11.33" rx="6" ry="2.88" fill="#8B3E1E" transform="rotate(225 11.33 11.33)"/><circle cx="10.74" cy="10.74" r="1.2" fill="#D9A066"/><ellipse cx="16" cy="9.4" rx="6" ry="2.88" fill="#8B3E1E" transform="rotate(270 16 9.4)"/><circle cx="16" cy="8.56" r="1.2" fill="#D9A066"/><ellipse cx="20.67" cy="11.33" rx="6" ry="2.88" fill="#8B3E1E" transform="rotate(315 20.67 11.33)"/><circle cx="21.26" cy="10.74" r="1.2" fill="#D9A066"/><circle cx="16" cy="16" r="1.92" fill="#5A2410"/>
</svg>
