<svg width="32" height="32" viewBox="0 0 32 32" fill="none" xmlns="http://www.w3.org/2000/svg">
<path d="M9 7.5c0-1.4 3.1-2.5 7-2.5s7 1.1 7 2.5v18c0 1.4-3.1 2.5-7 2.5s-7-1.1-7-2.5z" fill="#F4F4F4"/>
<ellipse cx="16" cy="7.3" rx="7" ry="2.3" fill="#D3D3D3"/>
<ellipse cx="16" cy="7.3" rx="5.4" ry="1.5" fill="#B4B4B4"/>
<rect x="14.6" y="6.6" width="2.8" height="1.3" rx=".6" fill="#8C8C8C"/>
<path d="M9 13h14v7H9z" fill="#FFC83D"/>
<g transform="translate(10 13.4) scale(0.36)"><path d="M8 6h16l-2 8H10z" fill="#00A6ED"/><path d="M16 14v10M10 24h12" stroke="#00A6ED" stroke-width="2"/></g><text x="16" y="23" text-anchor="middle" font-family="Arial, Helvetica, sans-serif" font-weight="700" font-size="3.4" fill="#7D4533">TONIC</text>
<path d="M10.8 11v13" stroke="#FFFFFF" stroke-opacity=".35" stroke-width="1.2" stroke-linecap="round"/>
</svg>
