<svg width="32" height="32" viewBox="0 0 32 32" fill="none" xmlns="http://www.w3.org/2000/svg">
<path d="M14 3h4v4.5h3.5c.8 0 1.5.7 1.5 1.5v18.5c0 1.1-.9 2-2 2H11c-1.1 0-2-.9-2-2V9c0-.8.7-1.5 1.5-1.5H14z" fill="#FFB02E"/>
<clipPath id="b"><path d="M14 3h4v4.5h3.5c.8 0 1.5.7 1.5 1.5v18.5c0 1.1-.9 2-2 2H11c-1.1 0-2-.9-2-2V9c0-.8.7-1.5 1.5-1.5H14z"/></clipPath><rect x="0" y="10" width="32" height="32" fill="#FFDA6B" clip-path="url(#b)"/>
<rect x="13.75" y="2" width="4.5" height="2.5" rx=".6" fill="#FF822D"/>
<rect x="9.5" y="13" width="13" height="9" rx="1" fill="#FFFFFF"/>
<g transform="translate(0 1.5)"><g transform="translate(10.5 10) scale(0.34)"><circle cx="16" cy="16" r="11" fill="#FF822D"/><circle cx="16" cy="16" r="9" fill="#FFB02E"/><path d="M16 16l0-8.5" stroke="#FFDA6B" stroke-width="1.2" transform="rotate(0 16 16)"/><path d="M16 16l0-8.5" stroke="#FFDA6B" stroke-width="1.2" transform="rotate(60 16 16)"/><path d="M16 16l0-8.5" stroke="#FFDA6B" stroke-width="1.2" transform="rotate(120 16 16)"/><path d="M16 16l0-8.5" stroke="#FFDA6B" stroke-width="1.2" transform="rotate(180 16 16)"/><path d="M16 16l0-8.5" stroke="#FFDA6B" stroke-width="1.2" transform="rotate(240 16 16)"/><path d="M16 16l0-8.5" stroke="#FFDA6B" stroke-width="1.2" transform="rotate(300 16 16)"/><circle cx="16" cy="16" r="1.4" fill="#FFDA6B"/></g></g>
<path d="M10.5 23.2v3" stroke="#FFFFFF" stroke-opacity=".45" stroke-width="1.2" stroke-linecap="round"/>
</svg>
