<svg width="32" height="32" viewBox="0 0 32 32" fill="none" xmlns="http://www.w3.org/2000/svg">
<g transform="translate(-4 -7.6) scale(1.25)">
<ellipse cx="16" cy="26.5" rx="12.6" ry="3.6" fill="#D3D3D3"/>
<ellipse cx="16" cy="25.8" rx="11" ry="2.7" fill="#F4F4F4"/>
<path d="M5 25.5c1.5-6.5 5.8-13 11-13s9.5 6.5 11 13c-3.2 1.5-7 2-11 2s-7.8-.5-11-2z" fill="#3A3A3A"/>
<path d="M16 12.5c-2.7 0-5.1 1.6-7 4.1 1.6-.6 3.2-.8 4.7-.4 1.2-1.4 2.3-2.4 2.3-3.7z" fill="#1A1A1A" fill-opacity=".6"/>
<g transform="translate(18.29 20.6) rotate(26.65) scale(0.62)"><ellipse rx="1.35" ry="1.8" fill="#2A2A2A" stroke="#000000" stroke-width=".45"/><ellipse cx=".9" rx=".3" ry=".7" fill="#F4F4F4"/></g><g transform="translate(21.69 19.33) rotate(332.38) scale(0.62)"><ellipse rx="1.35" ry="1.8" fill="#2A2A2A" stroke="#000000" stroke-width=".45"/><ellipse cx=".9" rx=".3" ry=".7" fill="#F4F4F4"/></g><g transform="translate(18.37 18.48) rotate(347.27) scale(0.62)"><ellipse rx="1.35" ry="1.8" fill="#2A2A2A" stroke="#000000" stroke-width=".45"/><ellipse cx=".9" rx=".3" ry=".7" fill="#F4F4F4"/></g><g transform="translate(15.02 21.39) rotate(221.33) scale(0.62)"><ellipse rx="1.35" ry="1.8" fill="#2A2A2A" stroke="#000000" stroke-width=".45"/><ellipse cx=".9" rx=".3" ry=".7" fill="#F4F4F4"/></g><g transform="translate(18.3 15.39) rotate(104.56) scale(0.62)"><ellipse rx="1.35" ry="1.8" fill="#2A2A2A" stroke="#000000" stroke-width=".45"/><ellipse cx=".9" rx=".3" ry=".7" fill="#F4F4F4"/></g><g transform="translate(18.88 19.82) rotate(146.96) scale(0.62)"><ellipse rx="1.35" ry="1.8" fill="#2A2A2A" stroke="#000000" stroke-width=".45"/><ellipse cx=".9" rx=".3" ry=".7" fill="#F4F4F4"/></g><g transform="translate(23.41 22.01) rotate(138.52) scale(0.62)"><ellipse rx="1.35" ry="1.8" fill="#2A2A2A" stroke="#000000" stroke-width=".45"/><ellipse cx=".9" rx=".3" ry=".7" fill="#F4F4F4"/></g><g transform="translate(15.47 16.47) rotate(228.2) scale(0.62)"><ellipse rx="1.35" ry="1.8" fill="#2A2A2A" stroke="#000000" stroke-width=".45"/><ellipse cx=".9" rx=".3" ry=".7" fill="#F4F4F4"/></g><g transform="translate(22.53 19.03) rotate(76.42) scale(0.62)"><ellipse rx="1.35" ry="1.8" fill="#2A2A2A" stroke="#000000" stroke-width=".45"/><ellipse cx=".9" rx=".3" ry=".7" fill="#F4F4F4"/></g><g transform="translate(18.88 20.01) rotate(263.82) scale(0.62)"><ellipse rx="1.35" ry="1.8" fill="#2A2A2A" stroke="#000000" stroke-width=".45"/><ellipse cx=".9" rx=".3" ry=".7" fill="#F4F4F4"/></g><g transform="translate(11.2 22.76) rotate(220.38) scale(0.62)"><ellipse rx="1.35" ry="1.8" fill="#2A2A2A" stroke="#000000" stroke-width=".45"/><ellipse cx=".9" rx=".3" ry=".7" fill="#F4F4F4"/></g><g transform="translate(22.15 22.59) rotate(96.1) scale(0.62)"><ellipse rx="1.35" ry="1.8" fill="#2A2A2A" stroke="#000000" stroke-width=".45"/><ellipse cx=".9" rx=".3" ry=".7" fill="#F4F4F4"/></g><g transform="translate(10.39 22.86) rotate(41) scale(0.62)"><ellipse rx="1.35" ry="1.8" fill="#2A2A2A" stroke="#000000" stroke-width=".45"/><ellipse cx=".9" rx=".3" ry=".7" fill="#F4F4F4"/></g><g transform="translate(14.59 18.88) rotate(205.06) scale(0.62)"><ellipse rx="1.35" ry="1.8" fill="#2A2A2A" stroke="#000000" stroke-width=".45"/><ellipse cx=".9" rx=".3" ry=".7" fill="#F4F4F4"/></g><g transform="translate(9.43 21.99) rotate(18.28) scale(0.62)"><ellipse rx="1.35" ry="1.8" fill="#2A2A2A" stroke="#000000" stroke-width=".45"/><ellipse cx=".9" rx=".3" ry=".7" fill="#F4F4F4"/></g><g transform="translate(17.56 19.53) rotate(350.68) scale(0.62)"><ellipse rx="1.35" ry="1.8" fill="#2A2A2A" stroke="#000000" stroke-width=".45"/><ellipse cx=".9" rx=".3" ry=".7" fill="#F4F4F4"/></g><g transform="translate(13.65 22.83) rotate(272.24) scale(0.62)"><ellipse rx="1.35" ry="1.8" fill="#2A2A2A" stroke="#000000" stroke-width=".45"/><ellipse cx=".9" rx=".3" ry=".7" fill="#F4F4F4"/></g><g transform="translate(20.38 19.23) rotate(292.96) scale(0.62)"><ellipse rx="1.35" ry="1.8" fill="#2A2A2A" stroke="#000000" stroke-width=".45"/><ellipse cx=".9" rx=".3" ry=".7" fill="#F4F4F4"/></g><g transform="translate(12.4 20.05) rotate(202.86) scale(0.62)"><ellipse rx="1.35" ry="1.8" fill="#2A2A2A" stroke="#000000" stroke-width=".45"/><ellipse cx=".9" rx=".3" ry=".7" fill="#F4F4F4"/></g><g transform="translate(12.38 20.62) rotate(151.92) scale(0.62)"><ellipse rx="1.35" ry="1.8" fill="#2A2A2A" stroke="#000000" stroke-width=".45"/><ellipse cx=".9" rx=".3" ry=".7" fill="#F4F4F4"/></g><g transform="translate(14.9 18.39) rotate(47.54) scale(0.62)"><ellipse rx="1.35" ry="1.8" fill="#2A2A2A" stroke="#000000" stroke-width=".45"/><ellipse cx=".9" rx=".3" ry=".7" fill="#F4F4F4"/></g><g transform="translate(14.77 22.25) rotate(294.1) scale(0.62)"><ellipse rx="1.35" ry="1.8" fill="#2A2A2A" stroke="#000000" stroke-width=".45"/><ellipse cx=".9" rx=".3" ry=".7" fill="#F4F4F4"/></g><g transform="translate(17.28 15.19) rotate(99.83) scale(0.62)"><ellipse rx="1.35" ry="1.8" fill="#2A2A2A" stroke="#000000" stroke-width=".45"/><ellipse cx=".9" rx=".3" ry=".7" fill="#F4F4F4"/></g>
<g transform="translate(8.5 26.5) rotate(20) scale(1.15)"><ellipse rx="1.35" ry="1.8" fill="#2A2A2A" stroke="#000000" stroke-width=".45"/><ellipse cx=".9" rx=".3" ry=".7" fill="#F4F4F4"/></g><g transform="translate(13.5 27.5) rotate(-35) scale(1.15)"><ellipse rx="1.35" ry="1.8" fill="#2A2A2A" stroke="#000000" stroke-width=".45"/><ellipse cx=".9" rx=".3" ry=".7" fill="#F4F4F4"/></g><g transform="translate(18.5 27.5) rotate(60) scale(1.15)"><ellipse rx="1.35" ry="1.8" fill="#2A2A2A" stroke="#000000" stroke-width=".45"/><ellipse cx=".9" rx=".3" ry=".7" fill="#F4F4F4"/></g><g transform="translate(23.5 26.5) rotate(-10) scale(1.15)"><ellipse rx="1.35" ry="1.8" fill="#2A2A2A" stroke="#000000" stroke-width=".45"/><ellipse cx=".9" rx=".3" ry=".7" fill="#F4F4F4"/></g><g transform="translate(11 23.8) rotate(75) scale(1.15)"><ellipse rx="1.35" ry="1.8" fill="#2A2A2A" stroke="#000000" stroke-width=".45"/><ellipse cx=".9" rx=".3" ry=".7" fill="#F4F4F4"/></g><g transform="translate(21 23.8) rotate(35) scale(1.15)"><ellipse rx="1.35" ry="1.8" fill="#2A2A2A" stroke="#000000" stroke-width=".45"/><ellipse cx=".9" rx=".3" ry=".7" fill="#F4F4F4"/></g>
</g>
</svg>
